<?xml version="1.0" encoding="utf-8"?>
<!-- Generator: Adobe Illustrator 25.2.0, SVG Export Plug-In . SVG Version: 6.00 Build 0)  -->
<svg version="1.1" id="Capa_1" xmlns="http://www.w3.org/2000/svg" xmlns:xlink="http://www.w3.org/1999/xlink" x="0px" y="0px"
	 viewBox="0 0 531.1 437" style="enable-background:new 0 0 531.1 437;" xml:space="preserve">
<style type="text/css">
	.st0{fill:#0000A0;}
	.st1{fill:#197CA3;}
	.st2{fill:#0D3342;}
	.st3{fill:#01AAFC;}
	.st4{fill:#FCFEFE;}
	.st5{fill:#F7CC7F;}
	.st6{fill:#466EB6;}
	.st7{fill:#5DA6C7;}
	.st8{fill:#E8F3F7;}
	.st9{fill:#F7A491;}
	.st10{fill:#223244;}
	.st11{fill:#374A66;}
	.st12{fill:#F47458;}
	.st13{fill:#046F99;}
</style>
<g>
	<g>
		<g>
			<polygon class="st0" points="155.8,52.9 147.2,49.2 145.3,55.1 142.4,54.2 145.4,45.1 154.4,49.3 156.1,41.8 164,45.1 
				167.2,38.2 170,39.5 165.5,49 158,45.9 			"/>
		</g>
		<path class="st1" d="M243.6,65L243.6,65c-5.7,0-10.3,4.6-10.3,10.3v15.5h20.6V75.3c0-5.1-3.2-10.3-8.2-10.3
			C245.2,65,244.2,65,243.6,65z M243.6,78.1c-2.3,0-4.1-1.8-4.1-4.1c0-2.3,1.8-4.1,4.1-4.1c2.3,0,4.1,1.8,4.1,4.1
			C247.7,76.3,245.9,78.1,243.6,78.1z"/>
		<path class="st2" d="M500.9,409.7H30.5c-1,0-1.9,3-1.9,6.6s0.8,6.6,1.9,6.6h470.4c1,0,1.9-3,1.9-6.6S502,409.7,500.9,409.7z"/>
		<path class="st3" d="M393,163.8c0.1,0.6,0.5,1,1,1.2c2.7,0.8,6.2,4.2,7.8,6.1l-4.5,12.3c-2.5,0.5-7.4,0.8-9.9-0.3
			c-0.5-0.2-1.1-0.1-1.5,0.2L378,190c-0.4,0.4-0.6,0.9-0.5,1.5c0.7,2.7-0.5,7.5-1.4,9.8l-12.9,2.3c-1.7-1.9-4.4-6-4.7-8.7
			c-0.1-0.6-0.4-1-1-1.2l-9.7-3.5c-0.5-0.2-1.1-0.1-1.5,0.3c-2,1.9-6.7,3.3-9.2,3.7l-8.5-10c0.8-2.4,3-6.8,5.2-8.5
			c0.5-0.3,0.7-0.9,0.6-1.5l-1.8-10.1c-0.1-0.6-0.5-1-1-1.2c-2.7-0.8-6.2-4.2-7.8-6.1l4.5-12.3c2.5-0.5,7.4-0.8,9.9,0.3
			c0.5,0.2,1.1,0.1,1.5-0.2l7.9-6.6c0.4-0.4,0.6-0.9,0.5-1.5c-0.7-2.7,0.5-7.5,1.4-9.8l12.9-2.3c1.7,1.9,4.4,6,4.7,8.7
			c0.1,0.6,0.4,1,1,1.2l9.7,3.5c0.5,0.2,1.1,0.1,1.5-0.3c2-1.9,6.7-3.3,9.2-3.7l8.5,10c-0.8,2.4-3,6.8-5.2,8.5
			c-0.5,0.3-0.7,0.9-0.6,1.5L393,163.8z M372.7,155.6c-4.6-5.5-12.7-6.1-18.2-1.5c-5.5,4.6-6.1,12.7-1.5,18.2
			c4.6,5.5,12.7,6.1,18.2,1.5C376.6,169.2,377.3,161,372.7,155.6z M379,150.3c-7.5-9-20.9-10.1-29.9-2.5c-9,7.5-10.1,20.9-2.5,29.9
			c7.5,9,20.9,10.1,29.9,2.5C385.4,172.6,386.5,159.2,379,150.3z"/>
		<path class="st3" d="M341.7,49.1c0.4,0.4,1,0.5,1.6,0.3c2.6-1.1,7.6-0.6,10.1,0l4.2,12.7c-1.7,1.9-5.4,5.3-8.1,6
			c-0.6,0.1-1,0.6-1.1,1.2l-2.1,10.3c-0.1,0.6,0.1,1.1,0.5,1.5c2.2,1.7,4.3,6.3,5.1,8.8l-8.9,10c-2.5-0.5-7.3-2-9.3-4
			c-0.4-0.4-1-0.6-1.5-0.4l-10,3.3c-0.5,0.2-0.9,0.7-1,1.2c-0.4,2.8-3.3,6.9-5.1,8.8l-13.1-2.7c-0.8-2.4-1.9-7.3-1.2-10.1
			c0.2-0.6,0-1.1-0.4-1.5l-7.8-7c-0.4-0.4-1-0.5-1.6-0.3c-2.6,1.1-7.6,0.6-10.1,0l-4.2-12.7c1.7-1.9,5.4-5.3,8.1-6
			c0.6-0.1,1-0.6,1.1-1.2l2.1-10.3c0.1-0.6-0.1-1.1-0.5-1.5c-2.2-1.7-4.3-6.3-5.1-8.8l8.9-10c2.5,0.5,7.3,2,9.3,4
			c0.4,0.4,1,0.6,1.5,0.4l10-3.3c0.5-0.2,0.9-0.7,1-1.2c0.4-2.8,3.3-6.9,5.1-8.8l13.1,2.7c0.8,2.4,1.9,7.3,1.2,10.1
			c-0.2,0.6,0,1.1,0.4,1.5L341.7,49.1z M320.3,55.4c-7.1-1.5-14.1,3.1-15.6,10.2c-1.5,7.1,3.1,14.1,10.2,15.6
			c7.1,1.5,14.1-3.1,15.6-10.2C332,63.8,327.5,56.8,320.3,55.4z M322.1,47.1c-11.7-2.4-23.1,5.1-25.5,16.7
			c-2.4,11.7,5.1,23.1,16.7,25.5c11.7,2.4,23.1-5.1,25.5-16.7C341.2,61,333.7,49.5,322.1,47.1z"/>
		<g>
			<path class="st3" d="M439.3,70.5c-0.6,0-1.2-0.3-1.5-0.9l-5.6-10.2c-0.3-0.6-0.3-1.2,0.1-1.8c1.8-2.6,2.5-8.1,2.5-10.9L422,39.1
				c-2.5,1.4-7.1,4.6-8.5,7.3c-0.3,0.6-0.9,0.9-1.5,0.9l-11.6-0.2c-0.6,0-1.2-0.4-1.5-1c-1.3-2.8-5.8-6.2-8.2-7.6l-13,7.2
				c-0.1,2.9,0.4,8.4,2.1,11c0.3,0.5,0.4,1.2,0,1.8l-6,10c-0.3,0.5-0.9,0.9-1.6,0.8c-3.1-0.3-8.2,1.9-10.7,3.3l-0.3,14.8
				c2.4,1.5,7.5,3.9,10.6,3.7c0.6,0,1.2,0.3,1.5,0.9l5.6,10.2c0.3,0.6,0.3,1.2-0.1,1.8c-1.8,2.6-2.5,8.1-2.5,10.9l12.7,7.6
				c2.5-1.4,7.1-4.6,8.5-7.3c0.3-0.6,0.9-0.9,1.5-0.9l11.6,0.2c0.6,0,1.2,0.4,1.5,1c1.3,2.8,5.8,6.2,8.2,7.6l13-7.2
				c0.1-2.9-0.4-8.4-2.1-11c-0.3-0.5-0.4-1.2,0-1.8l6-10c0.3-0.5,0.9-0.9,1.6-0.8c3.1,0.3,8.2-1.9,10.7-3.3l0.3-14.8
				C447.4,72.7,442.4,70.4,439.3,70.5z M429.5,81.3c-0.2,13.2-11.1,23.7-24.4,23.5c-13.2-0.2-23.7-11.1-23.5-24.4
				c0.2-13.2,11.1-23.7,24.4-23.5C419.2,57.1,429.7,68,429.5,81.3z"/>
			<path class="st0" d="M405.3,65.8c-8.1-0.1-14.7,6.3-14.8,14.3c-0.1,8.1,6.3,14.7,14.3,14.8c8.1,0.1,14.7-6.3,14.8-14.3
				C419.8,72.6,413.4,66,405.3,65.8z"/>
		</g>
		<g>
			<polygon class="st4" points="23.3,56.7 21.2,51.9 15.8,51.8 13.8,46.2 8.1,47.8 5.6,41.6 0.1,42.5 -3.3,36.9 -1.2,35.6 1.3,39.8 
				7.1,38.9 9.5,44.9 15.4,43.2 17.6,49.3 22.8,49.5 24.8,53.9 28.2,53.3 28.7,55.7 			"/>
			<polygon class="st4" points="380,296.6 379.2,291.4 374.1,289.9 373.7,284 367.7,284 367,277.3 361.5,276.7 359.7,270.4 
				362.1,269.7 363.4,274.4 369.2,275.1 369.9,281.5 376,281.5 376.4,288 381.5,289.5 382.1,294.4 385.6,294.7 385.4,297.1 			"/>
			<path class="st5" d="M418,349.5l-2.1-1.9l-2.8,0.7c-0.3,0.1-0.6-0.2-0.5-0.5l1.1-2.6l-1.5-2.4c-0.2-0.3,0-0.6,0.4-0.6l2.8,0.3
				l1.8-2.2c0.2-0.3,0.6-0.2,0.7,0.2l0.6,2.8l2.7,1.1c0.3,0.1,0.3,0.5,0.1,0.7l-2.5,1.5l-0.2,2.9C418.6,349.6,418.2,349.7,418,349.5
				z"/>
			<path class="st0" d="M134.3,35.2l-3.8-3.4l-4.9,1.3c-0.6,0.1-1-0.4-0.8-1l2-4.7l-2.7-4.3c-0.3-0.5,0.1-1.1,0.7-1.1l5.1,0.5
				l3.3-3.9c0.4-0.4,1.1-0.3,1.2,0.3l1.1,5l4.7,1.9c0.5,0.2,0.6,1,0.1,1.3l-4.4,2.6l-0.3,5.1C135.4,35.3,134.7,35.6,134.3,35.2z"/>
			<path class="st0" d="M197.8,73.3L194,70l-4.9,1.3c-0.6,0.1-1-0.4-0.8-1l2-4.7l-2.7-4.3c-0.3-0.5,0.1-1.1,0.7-1.1l5.1,0.5l3.3-3.9
				c0.4-0.4,1.1-0.3,1.2,0.3l1.1,5l4.7,1.9c0.5,0.2,0.6,1,0.1,1.3l-4.4,2.6l-0.3,5.1C199,73.4,198.3,73.7,197.8,73.3z"/>
			<path class="st6" d="M385.3,382l-3.8-3.4l-4.9,1.3c-0.6,0.1-1-0.4-0.8-1l2-4.7l-2.7-4.3c-0.3-0.5,0.1-1.1,0.7-1.1l5.1,0.5
				l3.3-3.9c0.4-0.4,1.1-0.3,1.2,0.3l1.1,5l4.7,1.9c0.5,0.2,0.6,1,0.1,1.2l-4.4,2.6l-0.3,5.1C386.4,382.1,385.7,382.4,385.3,382z"/>
			<polygon class="st0" points="36.3,84.2 27,84.4 26.3,91.3 17.1,91.8 15.4,98.3 8.6,99.6 9.2,102.3 18.4,100.6 20,94.4 29.5,93.9 
				30.2,87.1 38.6,86.9 			"/>
		</g>
		<path class="st0" d="M368.1,154.4v194c0,35-28.4,63.4-63.4,63.4H178.4c-35,0-63.4-28.4-63.4-63.4v-194c0-35,28.4-63.4,63.4-63.4
			h126.2C339.7,90.9,368.1,119.3,368.1,154.4z"/>
		<path class="st4" d="M350.9,176.9V333c0,35.5-28.8,64.2-64.2,64.2h-90.3c-35.5,0-64.2-28.8-64.2-64.2V176.9
			c0-35.5,28.8-64.2,64.2-64.2h90.3C322.2,112.7,350.9,141.5,350.9,176.9z"/>
		<g>
			<g>
				<g>
					
						<rect x="158.3" y="237.5" transform="matrix(-1 -1.224647e-16 1.224647e-16 -1 338.2589 503.1787)" class="st7" width="21.7" height="28.1"/>
					
						<rect x="157.6" y="243" transform="matrix(-1.836970e-16 1 -1 -1.836970e-16 420.7188 82.4598)" class="st4" width="23" height="17.2"/>
				</g>
				<path class="st0" d="M151.7,224.1c0.7-0.4,1.6-0.2,1.9,0.6l15.7,31.8l4.6-12.9c0.3-0.8,1.1-1.2,1.9-0.9c0.7,0.3,1.1,1.3,0.8,2.1
					l-6.8,19.2l-18.6-37.7C150.8,225.5,151,224.5,151.7,224.1z"/>
			</g>
			<g>
				<g>
					
						<rect x="158.3" y="281.9" transform="matrix(-1 -1.224647e-16 1.224647e-16 -1 338.2589 591.9909)" class="st7" width="21.7" height="28.1"/>
					
						<rect x="157.6" y="287.4" transform="matrix(-1.836970e-16 1 -1 -1.836970e-16 465.1248 126.8658)" class="st4" width="23" height="17.2"/>
				</g>
				<path class="st0" d="M151.7,268.5c0.7-0.4,1.6-0.2,1.9,0.6l15.7,31.8l4.6-12.9c0.3-0.8,1.1-1.2,1.9-0.9c0.7,0.3,1.1,1.3,0.8,2.1
					l-6.8,19.2l-18.6-37.7C150.8,269.9,151,268.9,151.7,268.5z"/>
			</g>
			<g>
				<g>
					
						<rect x="158.3" y="326.3" transform="matrix(-1 -1.224647e-16 1.224647e-16 -1 338.2589 680.8021)" class="st7" width="21.7" height="28.1"/>
					
						<rect x="157.6" y="331.8" transform="matrix(-1.836970e-16 1 -1 -1.836970e-16 509.5307 171.2717)" class="st4" width="23" height="17.2"/>
				</g>
				<path class="st0" d="M151.7,312.9c0.7-0.4,1.6-0.2,1.9,0.6l15.7,31.8l4.6-12.9c0.3-0.8,1.1-1.2,1.9-0.9c0.7,0.3,1.1,1.3,0.8,2.1
					l-6.8,19.2l-18.6-37.7C150.8,314.3,151,313.3,151.7,312.9z"/>
			</g>
		</g>
		<g>
			<path class="st7" d="M320.6,246.9H192.5c-0.8,0-1.4-0.6-1.4-1.4l0,0c0-0.8,0.6-1.4,1.4-1.4h128.1c0.8,0,1.4,0.6,1.4,1.4l0,0
				C322,246.3,321.4,246.9,320.6,246.9z"/>
			<path class="st7" d="M320.6,255H192.5c-0.8,0-1.4-0.6-1.4-1.4l0,0c0-0.8,0.6-1.4,1.4-1.4h128.1c0.8,0,1.4,0.6,1.4,1.4l0,0
				C322,254.3,321.4,255,320.6,255z"/>
			<path class="st7" d="M255.8,260.2h-63.2c-0.7,0-1.4,0.5-1.4,1.3c-0.1,0.8,0.6,1.5,1.4,1.5h63.2c0.8,0,1.4-0.6,1.4-1.4l0,0
				C257.2,260.9,256.5,260.2,255.8,260.2z"/>
		</g>
		<g>
			<path class="st7" d="M320,289.3H191.9c-0.8,0-1.4-0.6-1.4-1.4l0,0c0-0.8,0.6-1.4,1.4-1.4H320c0.8,0,1.4,0.6,1.4,1.4l0,0
				C321.4,288.7,320.8,289.3,320,289.3z"/>
			<path class="st7" d="M320,297.4H191.9c-0.8,0-1.4-0.6-1.4-1.4l0,0c0-0.8,0.6-1.4,1.4-1.4H320c0.8,0,1.4,0.6,1.4,1.4l0,0
				C321.4,296.8,320.8,297.4,320,297.4z"/>
			<path class="st7" d="M255.2,302.7H192c-0.7,0-1.4,0.5-1.4,1.3c-0.1,0.8,0.6,1.5,1.4,1.5h63.2c0.8,0,1.4-0.6,1.4-1.4l0,0
				C256.6,303.3,255.9,302.7,255.2,302.7z"/>
		</g>
		<g>
			<path class="st7" d="M320.6,334.3H192.5c-0.8,0-1.4-0.6-1.4-1.4l0,0c0-0.8,0.6-1.4,1.4-1.4h128.1c0.8,0,1.4,0.6,1.4,1.4l0,0
				C322,333.7,321.4,334.3,320.6,334.3z"/>
			<path class="st7" d="M320.6,342.4H192.5c-0.8,0-1.4-0.6-1.4-1.4l0,0c0-0.8,0.6-1.4,1.4-1.4h128.1c0.8,0,1.4,0.6,1.4,1.4l0,0
				C322,341.8,321.4,342.4,320.6,342.4z"/>
			<path class="st7" d="M255.8,347.7h-63.2c-0.7,0-1.4,0.5-1.4,1.3c-0.1,0.8,0.6,1.5,1.4,1.5h63.2c0.8,0,1.4-0.6,1.4-1.4l0,0
				C257.2,348.3,256.5,347.7,255.8,347.7z"/>
		</g>
		<polygon class="st0" points="194.4,112.7 276.1,112.7 275.2,90.9 195.3,90.9 		"/>
		<polygon class="st3" points="284.9,113.2 203.2,113.2 204.5,89 283.7,89 		"/>
		<path class="st3" d="M246,65.5L246,65.5c-5.7,0-10.3,4.6-10.3,10.3v15.5h20.6V75.8C256.4,70.1,251.7,65.5,246,65.5z M246,78.6
			c-2.3,0-4.1-1.8-4.1-4.1c0-2.3,1.8-4.1,4.1-4.1c2.3,0,4.1,1.8,4.1,4.1C250.1,76.7,248.3,78.6,246,78.6z"/>
		<g>
			
				<ellipse transform="matrix(7.296222e-02 -0.9973 0.9973 7.296222e-02 14.6606 165.2924)" class="st3" cx="96.2" cy="74.8" rx="37.2" ry="37.2"/>
			<path class="st3" d="M115.9,105.9C99,116.5,76.6,111.3,66,94.4c-10.6-16.9-5.4-39.3,11.5-49.9c16.9-10.6,39.3-5.4,49.9,11.5
				C138,72.9,132.8,95.3,115.9,105.9z"/>
			<path class="st4" d="M121.4,59.2c8.7,13.8,4.4,32.1-9.4,40.8c-13.8,8.7-32.1,4.4-40.8-9.4c-8.7-13.8-4.4-32.1,9.4-40.8
				C94.5,41.2,112.8,45.4,121.4,59.2z"/>
			<path class="st4" d="M111.1,98.5c-13.1,8.2-30.4,4.2-38.6-8.9S68.3,59.2,81.4,51c13.1-8.2,30.4-4.2,38.6,8.9
				C128.2,73,124.2,90.3,111.1,98.5z"/>
			<g>
				<path class="st3" d="M74.9,86.4L70.6,89c-0.7,0.4-0.9,1.4-0.5,2.1c0.4,0.7,1.4,0.9,2.1,0.5l4.3-2.7c0.7-0.4,0.9-1.4,0.5-2.1
					C76.5,86.1,75.6,85.9,74.9,86.4z"/>
				<path class="st3" d="M108.3,94.1c-0.7,0.4-0.9,1.4-0.5,2.1l2.7,4.3c0.4,0.7,1.4,0.9,2.1,0.5c0.7-0.4,0.9-1.4,0.5-2.1l-2.7-4.3
					C109.9,93.9,109,93.6,108.3,94.1z"/>
				<path class="st3" d="M120.3,58l-4.3,2.7c-0.7,0.4-0.9,1.4-0.5,2.1c0.4,0.7,1.4,0.9,2.1,0.5l4.3-2.7c0.7-0.4,0.9-1.4,0.5-2.1
					C121.9,57.8,121,57.5,120.3,58z"/>
				<path class="st3" d="M79.9,48.7c-0.7,0.4-0.9,1.4-0.5,2.1l2.7,4.3c0.4,0.7,1.4,0.9,2.1,0.5c0.7-0.4,0.9-1.4,0.5-2.1L82,49.2
					C81.6,48.5,80.6,48.2,79.9,48.7z"/>
			</g>
			<g>
				<g>
					<path class="st0" d="M88.2,34.6l-0.5-5.9c0-0.5,0.3-0.9,0.8-1l6.7-0.6c0.5,0,0.9,0.3,1,0.8l0.5,5.9c0,0.5-0.3,0.9-0.8,1
						l-6.7,0.6C88.6,35.4,88.2,35.1,88.2,34.6z"/>
				</g>
			</g>
			<g>
				<g>
					<path class="st0" d="M64,49.8l-5-3.1c-0.4-0.3-1-0.1-1.2,0.3l-3.5,5.8c-0.3,0.4-0.1,1,0.3,1.2l5,3.1c0.4,0.3,1,0.1,1.2-0.3
						l3.5-5.8C64.6,50.6,64.5,50.1,64,49.8z"/>
				</g>
			</g>
			<g>
				<path class="st0" d="M69.6,39.2c-0.4,0.2-0.9,0.1-1.2-0.3l-2.2-3.6c-0.2-0.4-0.1-0.9,0.3-1.2l7.3-4.6c0.4-0.2,0.9-0.1,1.2,0.3
					l2.2,3.6c0.2,0.4,0.1,0.9-0.3,1.2L69.6,39.2z"/>
				<path class="st0" d="M71.9,40.2c-3.8,0.9-7.9-0.6-10.1-4.1c-2.7-4.4-1.4-10.1,3-12.8c4.4-2.7,10.1-1.4,12.8,3
					c2.2,3.5,1.8,7.9-0.7,10.9l1.2,1.9c3.5-3.7,4.2-9.5,1.4-14c-3.4-5.4-10.5-7-15.9-3.7s-7,10.5-3.7,15.9c2.8,4.5,8.3,6.4,13.2,4.9
					L71.9,40.2z"/>
				<path class="st0" d="M76.1,42.6c0.9-0.5,1.7-1,2.6-1.5l-3.2-5.2l-4,2.5l3.2,5.1C75.1,43.2,75.6,42.9,76.1,42.6z"/>
			</g>
			<g>
				<path class="st0" d="M98.6,73.3c0.8,1.3,0.4,3-0.9,3.8c-1.3,0.8-3,0.4-3.8-0.9c-0.8-1.3-0.4-3,0.9-3.8
					C96.1,71.6,97.8,72,98.6,73.3z"/>
				<path class="st0" d="M95.5,52.2l1.7,22.4c0,0.6-0.4,1.1-0.9,1.1c-0.6,0-1.1-0.4-1.1-0.9C95.1,74.7,95.1,75.7,95.5,52.2z"/>
				<path class="st0" d="M117.5,82.5L96,75.8c-0.5-0.2-0.8-0.7-0.7-1.3c0.2-0.5,0.7-0.8,1.3-0.7C96.7,73.8,95.8,73.5,117.5,82.5z"/>
				<path class="st4" d="M97.2,74.1c0.3,0.5,0.2,1.2-0.4,1.5c-0.5,0.3-1.2,0.2-1.5-0.4c-0.3-0.5-0.2-1.2,0.4-1.5
					C96.2,73.4,96.9,73.6,97.2,74.1z"/>
			</g>
		</g>
		<g>
			<g>
				<path class="st1" d="M487.7,397.4v16.7c0,2.7-30.1,4.9-67.2,4.9c-37.1,0-67.2-2.2-67.2-4.9v-16.7H487.7z"/>
				<g>
					<path class="st3" d="M439.1,418.8v-21.4h48.7v16.7C487.7,416.3,467.2,418.2,439.1,418.8z"/>
					<path class="st3" d="M436.8,418.8c-5.2,0.1-10.7,0.1-16.3,0.1c-8.4,0-16.4-0.1-23.8-0.3v-21.3h40.1V418.8z"/>
					<path class="st3" d="M394.4,419c-24-0.7-40.7-2.5-40.7-4.5v-16.7h40.7V419z"/>
				</g>
				<path class="st1" d="M353.2,397.2c0,2.7,30.1,4.9,67.2,4.9c37.1,0,67.2-2.2,67.2-4.9c0-2.7-30.1-4.9-67.2-4.9
					C383.4,392.3,353.2,394.5,353.2,397.2z"/>
				<ellipse class="st8" cx="420.5" cy="397.2" rx="55.4" ry="3.4"/>
			</g>
			<g>
				<path class="st1" d="M469.2,379.7v16.7c0,2.7-30.1,4.9-67.2,4.9c-37.1,0-67.2-2.2-67.2-4.9v-16.7H469.2z"/>
				<g>
					<path class="st3" d="M420.9,401.6v-21.4h48.7v16.7C469.6,399.1,449,401,420.9,401.6z"/>
					<path class="st3" d="M418.7,401.6c-5.2,0.1-10.7,0.1-16.3,0.1c-8.4,0-16.4-0.1-23.8-0.3v-21.3h40.1V401.6z"/>
					<path class="st3" d="M375.8,401.4c-24-0.7-40.7-2.5-40.7-4.5v-16.7h40.7V401.4z"/>
				</g>
				<ellipse class="st1" cx="401.9" cy="379.6" rx="67.2" ry="4.9"/>
				<path class="st8" d="M346.5,379.6c0,1.9,24.8,3.4,55.4,3.4s55.4-1.5,55.4-3.4c0-1.9-24.8-3.4-55.4-3.4S346.5,377.7,346.5,379.6z
					"/>
			</g>
			<g>
				<path class="st1" d="M485.8,361.6v16.7c0,2.7-30.1,4.9-67.2,4.9c-37.1,0-67.2-2.2-67.2-4.9v-16.7H485.8z"/>
				<g>
					<path class="st3" d="M437.6,383.4v-21.4h48.7v16.7C486.3,381,465.7,382.9,437.6,383.4z"/>
					<path class="st3" d="M435.3,383.5c-5.2,0.1-10.7,0.1-16.3,0.1c-8.4,0-16.4-0.1-23.8-0.3v-21.3h40.1V383.5z"/>
					<path class="st3" d="M392.5,383.2c-24-0.7-40.7-2.5-40.7-4.5v-16.7h40.7V383.2z"/>
				</g>
				<path class="st1" d="M351.3,361.4c0,2.7,30.1,4.9,67.2,4.9c37.1,0,67.2-2.2,67.2-4.9c0-2.7-30.1-4.9-67.2-4.9
					C381.4,356.5,351.3,358.7,351.3,361.4z"/>
				<path class="st8" d="M363.2,361.4c0,1.9,24.8,3.4,55.4,3.4c30.6,0,55.4-1.5,55.4-3.4c0-1.9-24.8-3.4-55.4-3.4
					C388,358,363.2,359.6,363.2,361.4z"/>
			</g>
			<g>
				<path class="st1" d="M469.2,343.7v16.7c0,2.7-30.1,4.9-67.2,4.9c-37.1,0-67.2-2.2-67.2-4.9v-16.7H469.2z"/>
				<g>
					<path class="st3" d="M420.9,365.6v-21.4h48.7v16.7C469.6,363.1,449,365,420.9,365.6z"/>
					<path class="st3" d="M418.7,365.6c-5.2,0.1-10.7,0.1-16.3,0.1c-8.4,0-16.4-0.1-23.8-0.3v-21.3h40.1V365.6z"/>
					<path class="st3" d="M375.8,365.4c-24-0.7-40.7-2.5-40.7-4.5v-16.7h40.7V365.4z"/>
				</g>
				<path class="st1" d="M334.7,343.5c0,2.7,30.1,4.9,67.2,4.9c37.1,0,67.2-2.2,67.2-4.9c0-2.7-30.1-4.9-67.2-4.9
					C364.8,338.7,334.7,340.9,334.7,343.5z"/>
				<path class="st8" d="M346.5,343.5c0,1.9,24.8,3.4,55.4,3.4s55.4-1.5,55.4-3.4c0-1.9-24.8-3.4-55.4-3.4S346.5,341.7,346.5,343.5z
					"/>
			</g>
			<g>
				<path d="M392.6,189.4c1.4-0.5,2.9-1,4.2-1.7c1.5-0.7,3.5-1.6,4.8-1.8c2.7-0.4,7.2-0.1,9.8,2.6c3.1,3.4,8.7,0.6,7.6,18.4
					c-1.3,20.2-12.5,17.9-12.8,17.6c-0.3-0.3-10-12.9-10-12.9s-3.4,7.4-3.4,7.2C392.7,218.5,375.3,195.2,392.6,189.4z"/>
				<path class="st9" d="M347.1,399.3c0,0-1.6,8.5-1.6,8.5c-0.1,1.1-0.1,3.9-0.3,4.9c-0.9,3.6-16.2-5.2-12.2-5.9
					c0.4-0.1,3-2.7,3.6-3.8c1-2,2-5.6,2-5.6L347.1,399.3z"/>
				<path class="st1" d="M333.8,406.3c0,0,3.9,1,5.9,1.2c2,0.2,4.6-2.9,6-2.3c1.6,0.6,2.4,10.5,2.4,10.5s-25.2,1.1-31.1-0.5
					C314.7,414.5,326,409.3,333.8,406.3z"/>
				<path class="st9" d="M312,398.9c0,0-1.6,8.5-1.6,8.5c-0.1,1.1-0.1,3.9-0.3,4.9c-0.9,3.6-15.9-4.6-11.9-5.3
					c0.4-0.1,2.7-3.3,3.3-4.4c1-2,2-5.6,2-5.6L312,398.9z"/>
				<path class="st1" d="M299.1,406.3c0,0,3.9,1,5.9,1.2c2,0.2,4.6-2.9,6-2.3c1.6,0.6,2.4,10.5,2.4,10.5s-25.2,1.1-31.1-0.5
					C280,414.5,291.3,409.3,299.1,406.3z"/>
				<path class="st10" d="M399.2,314l-45.8-10.6c0,0-20.5-5.4-25.5,0.9c-5,6.4-26,94.3-26,94.3s10.9,0.9,11.6,0.5l25.4-45.1
					c2.4-4.3,4-9,4.7-13.9l1.8-12.9l18.6,5.4c0,0,21.5,4.7,30.2-0.7C403,326.5,399.2,314,399.2,314z"/>
				<path class="st11" d="M381.7,235.1c-0.7,0-2.7,0.7-5.6,6.1c-3.7,7-9.1,28-9.1,28l16.1,6l2.1-4.4l3.4-33.8
					C388.6,237,381.9,235.1,381.7,235.1z"/>
				<path class="st4" d="M403,232.1c-4.6,0-16,1.3-21.3,3c0,0-3.9,33.4,3.5,58.7c1.7,5.7-1.4,23.5-1.4,23.5l47.8-0.6
					c0,0-5.7-43.1-3.5-50.1c2.1-7,2.2-31.3,2.2-31.3s-0.3-0.1-10.7-1.8C414.7,232.6,407.9,232.1,403,232.1z"/>
				<path class="st9" d="M430.8,239c-4.5-1.7-6.7,38.5-7.3,55c-7.9,0.8-21.7,0-25.2-0.3c-1.6-0.1-5.3-1.5-7-1.7
					c-1.6-0.2-3.1-0.3-4-0.2c-0.3,0.1-8.6,3.4-9.3,4.2c-0.9,0.9-3.2,3.2-2.8,4.2c0.4,1,4.6-2.8,4.6-2.8l2-1.1
					c-2.5,2.5-7.3,5.7-6.7,6.9c0.7,1.2,5-2.1,8.1-4.4c-2.7,2.4-6,6.7-5.2,7.3c0.7,0.6,4.4-4.4,8.5-5.8c1.5-0.5,3,0.9,4.1,1.1
					c0.9,0.1,2.2,0.4,3,0.2l4-0.4c1.5,0.1,1.8,0.2,3.3,0.5c1.7,0.4,4.6,0.8,6.8,1.3c12.7,3.1,17,4.5,20.9,4.5
					C440.7,307.6,441.4,243,430.8,239z"/>
				<path class="st11" d="M439.3,276.7c0.8-16.9,0.7-37.8-8.8-41.4c-3.8-1.4-10.4,7-9.2,41.7C426.4,277.5,433.8,277.8,439.3,276.7z"
					/>
				<path class="st3" d="M333.7,266.8l45.1,2.9c1.2,0.1,2.2,0.9,2.6,2l11.7,34.7l24.8,1.6c0.7,0,1.2,0.6,1.2,1.3l0,0
					c0,0.7-0.6,1.2-1.3,1.2L347,306c-1.9-0.1-3.6-1.4-4.3-3.2l-11.9-32C330,268.8,331.5,266.7,333.7,266.8z"/>
				<path class="st11" d="M431.6,315.6l-49.9-8.6c0,0-21.6-3.3-26.5,3.1c-5,6.4-19.3,89-19.3,89s10.9,0.9,11.6,0.5
					c0.5-0.4,13.7-27.9,19.6-40.3c1.9-3.9,3.2-8.1,3.9-12.4l1.9-11.2l6.3,2.2c11,3.8,22.8,5.1,34.4,3.7c4.8-0.6,9.4-1.6,12.2-3.4
					C434.4,332.6,431.6,315.6,431.6,315.6z"/>
				<path class="st9" d="M401.1,226l-1,7.2c0,0-2.2,10.4,0.6,12.4c2.8,2,11.9-12.7,11.9-12.7l-1-18.3L401.1,226z"/>
				<path class="st12" d="M412,220.6c-2.3,6.2-7.8,10.1-11.7,11.5l0.8-6.1l10.6-11.3L412,220.6z"/>
				<path class="st9" d="M401.7,194.8c-5.9-1-11.2,3.8-11.1,9.7c0.1,2.6,0.3,5.8,0.8,9.2c1.3,8.3,7,15.6,10.7,15
					c3.8-0.7,13.2-7.8,11.6-19.7C412.7,201.7,407.9,195.8,401.7,194.8z"/>
				<path class="st9" d="M411.1,210.5c0.3,1.8,1.8,3.1,3.3,2.8c1.5-0.3,2.4-2,2.1-3.8c-0.3-1.8-1.8-3.1-3.3-2.8
					C411.7,206.9,410.8,208.6,411.1,210.5z"/>
				<path d="M413.2,206.7c0,0-4.6,1.1-6.2-1.8c-1.7-2.9-7.7-9.2-15.4-6.6c-7.7,2.6,6.8-6.3,7.4-6.3c0.6,0,8-0.1,8-0.1
					s5.7,4.7,5.9,5.2c0.2,0.5,1.8,6.1,1.8,6.1L413.2,206.7z"/>
			</g>
			<g>
				<path class="st13" d="M68,171.9l-1.2,14.9l-8.7-9.8l-28.1-23l23.9,7.5c0,0,11.8,5.7,12.3,6.5C66.8,168.9,68,171.9,68,171.9z"/>
				<polygon class="st3" points="80.7,165.5 30,154.1 68,171.9 				"/>
				<polygon class="st3" points="48.5,183 64.1,175.2 30,154.1 				"/>
			</g>
			<g>
				<g>
					<path class="st4" d="M73.9,180.2c-2.3-0.9-4.1-1.1-4.1-1.1l0.1-1.1c0.1,0,1.9,0.2,4.4,1.1L73.9,180.2z"/>
				</g>
				<g>
					<path class="st0" d="M98.2,269.3c-2.1-1.9-4-4-5.6-6.2l0.9-0.7c1.6,2.1,3.4,4.1,5.5,6L98.2,269.3z M88.2,256
						c-0.5-1.2-1.1-2.4-1.5-3.6c-0.5-1.4-1-2.8-1.3-4.3l1.1-0.3c0.4,1.4,0.8,2.8,1.3,4.2c0.4,1.2,0.9,2.4,1.5,3.5L88.2,256z
						 M85.1,239.8l-1.1,0.1c-0.2-2.6-0.3-5.3-0.3-8.3l1.1,0C84.7,234.6,84.8,237.3,85.1,239.8z M85.3,223.5l-1.1-0.1
						c0.2-2.4,0.6-5,1-8.2l1.1,0.2C85.9,218.5,85.6,221.1,85.3,223.5z M87.6,207.1l-1.1-0.1l0-0.1c0.4-2.9,0.6-5.6,0.4-8.1l1.1-0.1
						C88.1,201.3,88,204.1,87.6,207.1L87.6,207.1z M85.2,191c-1-2.5-2.5-4.8-4.5-6.6l0.8-0.8c2,1.9,3.6,4.3,4.7,7L85.2,191z"/>
				</g>
			</g>
		</g>
	</g>
</g>
<g>
	<path class="st3" d="M185.8,187c0-9.1,0-18.1,0-27.2c0-5.8,1.5-11.1,4.8-15.9c4.5-6.5,10.7-10.4,18.4-11.7c1.4-0.2,2.7-0.3,4.1-0.3
		c1.8,0,3.6,0,5.5,0c0.3,0,0.4,0.1,0.4,0.4c0,5.5,0,11,0,16.4c0,0.3-0.1,0.4-0.4,0.4c-2,0-3.9-0.1-5.9,0c-4.5,0.3-8.3,3.4-9.4,7.7
		c-0.4,1.5-0.3,3-0.3,4.5c0,0.8,0,0.8,0.8,0.8c3.6,0,7.3,0,10.9,0c0.4,0,0.5,0.1,0.5,0.5c0,5.1,0,10.2,0,15.2c0,0.4-0.1,0.5-0.5,0.4
		c-3.7,0-7.5,0-11.2,0c-0.4,0-0.4,0.1-0.4,0.5c0,7.8,0,15.6,0,23.4c0,7.1-5.2,13.3-12.2,14.6c-1.6,0.3-3.2,0.2-4.8,0.2
		c-0.2,0-0.3-0.1-0.3-0.3c0-0.2,0-0.3,0-0.5C185.8,206.5,185.8,196.7,185.8,187z"/>
	<path class="st3" d="M225,179.3c0-5.6,0-11.1,0-16.7c0-0.4,0.1-0.5,0.5-0.5c5.4,0,10.8,0,16.2,0c0.4,0,0.5,0.1,0.5,0.5
		c0,10.8,0,21.6,0,32.4c0,1.5,0.2,2.9,1,4.2c0.9,1.3,2.2,2,3.7,2.3c0.5,0.1,1.1,0.2,1.7,0.3c0.4,0,0.5,0.2,0.5,0.5
		c0,3.1,0,6.2,0,9.3c0,1.6,0,3.2,0,4.8c0,0.2,0,0.4-0.3,0.4c-3.9,0-7.8-0.3-11.5-1.6c-5.6-1.9-9-5.9-10.8-11.4c-1-3-1.4-6-1.4-9.1
		C225,189.6,225,184.4,225,179.3C225,179.3,225,179.3,225,179.3z"/>
	<path class="st3" d="M233.6,132.7c5.4,0,9.6,4.2,9.6,9.6c0,5.2-4.3,9.4-9.6,9.4c-5.3,0-9.6-4.2-9.6-9.5
		C224,136.9,228.3,132.7,233.6,132.7z"/>
	<path class="st3" d="M265.3,162.6c0-0.1,0-0.2,0-0.2c0-1,0-1,1-1c0.3,0,0.7,0,1,0c0.2,0,0.3,0.1,0.3,0.3c0,3.1,0.1,6.2-0.1,9.3
		c-0.1,2.8-1.9,4.5-4.7,4.6c-1.7,0.1-3.3-0.3-4.8-1.2c-0.3-0.2-0.3-0.3-0.1-0.6c0.3-0.4,0.5-0.8,0.8-1.2c0.1-0.2,0.3-0.3,0.5-0.1
		c1.1,0.7,2.2,1,3.5,0.9c1.7-0.1,2.5-0.8,2.7-2.5c0-0.3,0-0.5,0.1-0.9c-0.8,1-1.9,1.3-3,1.4c-1.1,0-2.2-0.2-3.1-0.9
		c-1.8-1.3-2.4-3.1-2-5.3c0.4-2,1.7-3.4,3.7-3.9c0.8-0.2,1.7-0.2,2.5,0.1C264.2,161.6,264.8,161.9,265.3,162.6z M262.5,169.2
		c1.7,0,3-1.2,3-3c0-1.6-1.3-2.9-3-2.9c-1.7,0-2.9,1.3-2.9,3C259.6,168,260.8,169.2,262.5,169.2z"/>
	<path class="st3" d="M302.4,162.6c1.5-2,5.2-1.9,7.1,0.6c2,2.8,0.8,7.1-2.4,8.1c-0.9,0.3-1.7,0.3-2.6,0.1c-0.8-0.2-1.5-0.5-2-1.2
		c-0.1,0.2-0.1,0.4-0.1,0.5c0,1.3,0,2.7,0,4c0,0.3-0.1,0.4-0.4,0.4c-0.5,0-1,0-1.6,0c-0.4,0-0.5-0.1-0.4-0.5c0-1.5,0-3.1,0-4.6
		c0-2.7,0-5.3,0-8c0-0.5,0.1-0.6,0.6-0.6c0.5,0,0.9,0,1.4,0c0.3,0,0.4,0.1,0.4,0.4C302.4,162,302.4,162.2,302.4,162.6z M302.2,166.4
		c0,1.7,1.3,3,3,3c1.7,0,2.9-1.3,2.9-3c0-1.7-1.2-3-2.9-3C303.4,163.4,302.2,164.6,302.2,166.4z"/>
	<path class="st3" d="M276.2,166.3c0-2.9,2.4-5.2,5.4-5.2c3,0,5.4,2.3,5.4,5.3c0,2.9-2.4,5.2-5.4,5.2
		C278.7,171.6,276.2,169.3,276.2,166.3z M281.7,163.3c-1.7,0-3,1.3-3.1,3c0,1.8,1.3,3.1,3,3.1c1.7,0,3-1.3,3-3.1
		C284.7,164.6,283.4,163.3,281.7,163.3z"/>
	<path class="st3" d="M295.3,170.1c-1.5,1.6-3.8,1.8-5.4,0.6c-0.9-0.7-1.3-1.7-1.3-2.8c0-2,0-4.1,0-6.1c0-0.3,0.1-0.4,0.4-0.4
		c0.5,0,1.1,0,1.6,0c0.3,0,0.4,0.1,0.4,0.4c0,1.7,0,3.5,0,5.2c0,0.2,0,0.4,0,0.6c0.2,1.1,0.9,1.7,2,1.7c1.1,0,1.9-0.7,2-1.8
		c0.1-0.7,0-1.4,0-2.1c0-1.2,0-2.4,0-3.6c0-0.3,0.1-0.5,0.4-0.4c0.5,0,1,0,1.5,0c0.4,0,0.5,0.1,0.5,0.5c0,2.1,0,4.1,0,6.2
		c0,0.2,0,0.4,0,0.6c0,0.6,0.3,0.8,0.8,0.7c0.3,0,0.4,0,0.4,0.3c0,0.4,0,0.9,0,1.3c0,0.2,0,0.3-0.2,0.4c-0.8,0.1-1.6,0.2-2.3-0.3
		C295.7,170.9,295.5,170.5,295.3,170.1z"/>
	<path class="st3" d="M272.1,162.5c0.8-1.1,1.9-1.4,3.2-1.3c0.3,0,0.4,0.1,0.4,0.4c0,0.5,0,1,0,1.5c0,0.4-0.1,0.5-0.4,0.4
		c-0.7-0.1-1.3,0-2,0.3c-0.9,0.5-1.2,1.2-1.2,2.2c0,1.6,0,3.2,0,4.8c0,0.4-0.1,0.5-0.5,0.5c-0.5,0-1,0-1.5,0c-0.3,0-0.4-0.1-0.4-0.4
		c0-3.1,0-6.1,0-9.2c0-0.3,0.1-0.3,0.3-0.3c0.6,0,1.1,0,1.7,0c0.3,0,0.4,0.1,0.4,0.4C272.1,162,272.1,162.3,272.1,162.5z"/>
</g>
<g>
	<path class="st3" d="M410.5,257.4c0-1,0-2.1,0-3.1c0-0.7,0.2-1.3,0.6-1.8c0.5-0.7,1.2-1.2,2.1-1.3c0.2,0,0.3,0,0.5,0
		c0.2,0,0.4,0,0.6,0c0,0,0,0,0,0c0,0.6,0,1.3,0,1.9c0,0,0,0,0,0c-0.2,0-0.4,0-0.7,0c-0.5,0-0.9,0.4-1.1,0.9c0,0.2,0,0.3,0,0.5
		c0,0.1,0,0.1,0.1,0.1c0.4,0,0.8,0,1.3,0c0,0,0.1,0,0.1,0.1c0,0.6,0,1.2,0,1.7c0,0,0,0.1-0.1,0.1c-0.4,0-0.9,0-1.3,0
		c0,0-0.1,0-0.1,0.1c0,0.9,0,1.8,0,2.7c0,0.8-0.6,1.5-1.4,1.7c-0.2,0-0.4,0-0.6,0c0,0,0,0,0,0c0,0,0,0,0-0.1
		C410.5,259.6,410.5,258.5,410.5,257.4z"/>
	<path class="st3" d="M415,256.5c0-0.6,0-1.3,0-1.9c0,0,0-0.1,0.1-0.1c0.6,0,1.2,0,1.9,0c0,0,0.1,0,0.1,0.1c0,1.2,0,2.5,0,3.7
		c0,0.2,0,0.3,0.1,0.5c0.1,0.2,0.2,0.2,0.4,0.3c0.1,0,0.1,0,0.2,0c0,0,0.1,0,0.1,0.1c0,0.4,0,0.7,0,1.1c0,0.2,0,0.4,0,0.6
		c0,0,0,0,0,0c-0.4,0-0.9,0-1.3-0.2c-0.6-0.2-1-0.7-1.2-1.3c-0.1-0.3-0.2-0.7-0.2-1C415,257.7,415,257.1,415,256.5
		C415,256.5,415,256.5,415,256.5z"/>
	<path class="st3" d="M416,251.1c0.6,0,1.1,0.5,1.1,1.1c0,0.6-0.5,1.1-1.1,1.1c-0.6,0-1.1-0.5-1.1-1.1
		C414.9,251.6,415.4,251.1,416,251.1z"/>
</g>
<g>
	<g>
		<path class="st0" d="M356.8,289.9c-0.2-0.9-0.3-1.8-0.5-2.8c-0.1-0.6,0-1.2,0.2-1.7c0.3-0.7,0.9-1.2,1.7-1.5
			c0.1,0,0.3-0.1,0.4-0.1c0.2,0,0.4-0.1,0.6-0.1c0,0,0,0,0,0c0.1,0.6,0.2,1.1,0.3,1.7c0,0,0,0,0,0c-0.2,0-0.4,0.1-0.6,0.1
			c-0.5,0.1-0.8,0.5-0.8,0.9c0,0.2,0,0.3,0,0.5c0,0.1,0,0.1,0.1,0.1c0.4-0.1,0.7-0.1,1.1-0.2c0,0,0,0,0.1,0c0.1,0.5,0.2,1,0.3,1.5
			c0,0,0,0,0,0.1c-0.4,0.1-0.8,0.1-1.1,0.2c0,0,0,0,0,0.1c0.1,0.8,0.3,1.6,0.4,2.4c0.1,0.7-0.3,1.4-1,1.7c-0.2,0.1-0.3,0.1-0.5,0.1
			c0,0,0,0,0,0c0,0,0,0,0,0C357.1,291.8,356.9,290.8,356.8,289.9z"/>
		<path class="st0" d="M360.6,288.4c-0.1-0.6-0.2-1.1-0.3-1.7c0,0,0-0.1,0-0.1c0.5-0.1,1.1-0.2,1.6-0.3c0,0,0,0,0.1,0
			c0.2,1.1,0.4,2.2,0.6,3.3c0,0.2,0.1,0.3,0.2,0.4c0.1,0.1,0.3,0.2,0.4,0.2c0.1,0,0.1,0,0.2,0c0,0,0,0,0.1,0
			c0.1,0.3,0.1,0.6,0.2,0.9c0,0.2,0.1,0.3,0.1,0.5c0,0,0,0,0,0c-0.4,0.1-0.8,0.1-1.2,0c-0.6-0.1-1-0.4-1.3-1
			c-0.1-0.3-0.2-0.6-0.3-0.9C360.8,289.4,360.7,288.9,360.6,288.4C360.6,288.4,360.6,288.4,360.6,288.4z"/>
		<path class="st0" d="M360.7,283.5c0.5-0.1,1,0.3,1.1,0.8c0.1,0.5-0.3,1-0.8,1.1c-0.5,0.1-1-0.3-1.1-0.8
			C359.8,284.1,360.1,283.6,360.7,283.5z"/>
	</g>
</g>
<g>
	<g>
		<path class="st3" d="M257.8,184h5c0.3,0,0.6,0.1,0.8,0.3c0.2,0.2,0.3,0.5,0.3,0.8c0,0.3-0.1,0.6-0.3,0.8c-0.2,0.2-0.5,0.3-0.8,0.3
			h-5c-0.3,0-0.6-0.1-0.8-0.3c-0.2-0.2-0.3-0.5-0.3-0.8c0-0.3,0.1-0.6,0.3-0.8S257.5,184,257.8,184z M260.1,181.4
			c0.4,0,0.7,0.1,0.9,0.4s0.3,0.5,0.3,0.9v9.3c0,0.2,0,0.4,0.1,0.5c0.1,0.1,0.2,0.2,0.3,0.3c0.1,0.1,0.3,0.1,0.4,0.1
			c0.2,0,0.3,0,0.5-0.1c0.1-0.1,0.3-0.1,0.5-0.1c0.2,0,0.4,0.1,0.5,0.3s0.2,0.4,0.2,0.8c0,0.4-0.2,0.7-0.6,1
			c-0.4,0.3-0.9,0.4-1.4,0.4c-0.3,0-0.6,0-1-0.1s-0.7-0.2-1-0.4c-0.3-0.2-0.6-0.5-0.8-0.9c-0.2-0.4-0.3-0.9-0.3-1.6v-9.5
			c0-0.4,0.1-0.7,0.4-0.9C259.4,181.5,259.7,181.4,260.1,181.4z"/>
		<path class="st3" d="M277.1,189.4c0,1.1-0.3,2.2-0.8,3c-0.5,0.9-1.2,1.6-2.1,2s-1.8,0.7-2.9,0.7s-2-0.2-2.9-0.7s-1.5-1.2-2.1-2
			c-0.5-0.9-0.8-1.9-0.8-3c0-1.1,0.3-2.2,0.8-3c0.5-0.9,1.2-1.6,2.1-2.1s1.8-0.7,2.9-0.7s2,0.2,2.9,0.7s1.5,1.2,2.1,2.1
			C276.8,187.3,277.1,188.3,277.1,189.4z M274.5,189.4c0-0.7-0.1-1.3-0.4-1.9c-0.3-0.5-0.7-0.9-1.2-1.2c-0.5-0.3-1-0.4-1.6-0.4
			c-0.6,0-1.1,0.1-1.6,0.4c-0.5,0.3-0.9,0.7-1.2,1.2c-0.3,0.5-0.4,1.1-0.4,1.9c0,0.7,0.1,1.3,0.4,1.8c0.3,0.5,0.7,0.9,1.2,1.2
			c0.5,0.3,1,0.4,1.6,0.4c0.6,0,1.1-0.1,1.6-0.4c0.5-0.3,0.9-0.7,1.2-1.2C274.4,190.8,274.5,190.1,274.5,189.4z"/>
		<path class="st3" d="M288.3,179.5c0.4,0,0.7,0.1,0.9,0.4s0.4,0.5,0.4,0.9v13c0,0.4-0.1,0.7-0.4,0.9s-0.5,0.4-0.9,0.4
			c-0.4,0-0.7-0.1-0.9-0.4c-0.2-0.2-0.4-0.5-0.4-0.9v-1l0.5,0.2c0,0.2-0.1,0.4-0.3,0.7c-0.2,0.3-0.5,0.5-0.8,0.8s-0.7,0.5-1.2,0.6
			c-0.5,0.2-0.9,0.3-1.5,0.3c-1,0-1.8-0.2-2.6-0.7s-1.4-1.2-1.9-2.1c-0.5-0.9-0.7-1.9-0.7-3c0-1.1,0.2-2.2,0.7-3
			c0.5-0.9,1.1-1.6,1.8-2.1s1.6-0.7,2.6-0.7c0.6,0,1.2,0.1,1.7,0.3c0.5,0.2,0.9,0.4,1.3,0.7c0.4,0.3,0.7,0.6,0.9,0.9
			c0.2,0.3,0.3,0.5,0.3,0.7l-0.8,0.3v-5.6c0-0.4,0.1-0.7,0.4-0.9C287.6,179.6,287.9,179.5,288.3,179.5z M284,192.9
			c0.6,0,1.2-0.2,1.6-0.5s0.8-0.7,1.1-1.3c0.3-0.5,0.4-1.1,0.4-1.8c0-0.7-0.1-1.3-0.4-1.8c-0.3-0.5-0.6-1-1.1-1.3
			c-0.5-0.3-1-0.5-1.6-0.5c-0.6,0-1.1,0.2-1.6,0.5c-0.5,0.3-0.8,0.7-1.1,1.3c-0.3,0.5-0.4,1.1-0.4,1.8c0,0.7,0.1,1.3,0.4,1.8
			c0.3,0.5,0.6,1,1.1,1.3S283.4,192.9,284,192.9z"/>
		<path class="st3" d="M303,189.4c0,1.1-0.3,2.2-0.8,3c-0.5,0.9-1.2,1.6-2.1,2s-1.8,0.7-2.9,0.7s-2-0.2-2.9-0.7s-1.5-1.2-2.1-2
			c-0.5-0.9-0.8-1.9-0.8-3c0-1.1,0.3-2.2,0.8-3c0.5-0.9,1.2-1.6,2.1-2.1s1.8-0.7,2.9-0.7s2,0.2,2.9,0.7s1.5,1.2,2.1,2.1
			C302.8,187.3,303,188.3,303,189.4z M300.5,189.4c0-0.7-0.1-1.3-0.4-1.9c-0.3-0.5-0.7-0.9-1.2-1.2c-0.5-0.3-1-0.4-1.6-0.4
			c-0.6,0-1.1,0.1-1.6,0.4c-0.5,0.3-0.9,0.7-1.2,1.2c-0.3,0.5-0.4,1.1-0.4,1.9c0,0.7,0.1,1.3,0.4,1.8c0.3,0.5,0.7,0.9,1.2,1.2
			c0.5,0.3,1,0.4,1.6,0.4c0.6,0,1.1-0.1,1.6-0.4c0.5-0.3,0.9-0.7,1.2-1.2C300.4,190.8,300.5,190.1,300.5,189.4z"/>
		<path class="st3" d="M260.4,214.8c0,0.4-0.1,0.7-0.4,0.9c-0.2,0.2-0.5,0.4-0.9,0.4c-0.4,0-0.6-0.1-0.9-0.4
			c-0.2-0.2-0.4-0.5-0.4-0.9v-13c0-0.4,0.1-0.7,0.4-0.9s0.5-0.4,0.9-0.4c0.4,0,0.7,0.1,0.9,0.4s0.3,0.5,0.3,0.9V214.8z"/>
		<path class="st3" d="M264.4,203.4c-0.5,0-0.8-0.1-1-0.2c-0.2-0.2-0.3-0.4-0.3-0.8V202c0-0.4,0.1-0.7,0.3-0.8
			c0.2-0.1,0.5-0.2,1-0.2c0.5,0,0.8,0.1,1,0.2c0.2,0.2,0.3,0.4,0.3,0.8v0.4c0,0.4-0.1,0.7-0.3,0.8
			C265.3,203.4,264.9,203.4,264.4,203.4z M265.7,214.8c0,0.4-0.1,0.7-0.4,0.9c-0.2,0.2-0.5,0.4-0.9,0.4c-0.4,0-0.7-0.1-0.9-0.4
			c-0.2-0.2-0.4-0.5-0.4-0.9v-8.7c0-0.4,0.1-0.7,0.4-0.9c0.2-0.2,0.5-0.4,0.9-0.4c0.4,0,0.7,0.1,0.9,0.4c0.2,0.2,0.4,0.5,0.4,0.9
			V214.8z"/>
		<path class="st3" d="M267.7,214.3c-0.1-0.2-0.2-0.4-0.2-0.8c0-0.3,0.2-0.6,0.5-0.8c0.2-0.1,0.5-0.2,0.7-0.2c0.3,0,0.5,0.2,0.7,0.4
			c0.4,0.4,0.8,0.7,1.3,0.9s1,0.3,1.7,0.3c0.2,0,0.4,0,0.7-0.1c0.3,0,0.5-0.2,0.7-0.3s0.3-0.4,0.3-0.8c0-0.3-0.1-0.6-0.3-0.7
			c-0.2-0.2-0.5-0.3-0.8-0.5c-0.3-0.1-0.7-0.2-1.1-0.4c-0.4-0.1-0.9-0.3-1.3-0.4c-0.5-0.2-0.9-0.4-1.2-0.6s-0.7-0.6-0.9-1
			c-0.2-0.4-0.4-0.9-0.4-1.5c0-0.7,0.2-1.3,0.6-1.8c0.4-0.5,0.9-0.9,1.5-1.1c0.6-0.3,1.3-0.4,2-0.4c0.4,0,0.9,0.1,1.4,0.2
			c0.5,0.1,0.9,0.3,1.4,0.5c0.4,0.2,0.8,0.5,1.1,0.9c0.2,0.2,0.2,0.5,0.3,0.8c0,0.3-0.1,0.6-0.4,0.8c-0.2,0.2-0.5,0.2-0.7,0.2
			c-0.3,0-0.5-0.1-0.7-0.3c-0.2-0.3-0.6-0.6-1-0.7c-0.4-0.2-0.9-0.3-1.4-0.3c-0.2,0-0.4,0-0.7,0.1c-0.2,0-0.5,0.2-0.6,0.3
			s-0.3,0.4-0.3,0.8c0,0.3,0.1,0.6,0.3,0.8c0.2,0.2,0.5,0.3,0.9,0.5s0.7,0.2,1.1,0.3c0.4,0.1,0.8,0.2,1.3,0.4
			c0.4,0.2,0.8,0.4,1.2,0.6c0.4,0.3,0.7,0.6,0.9,1c0.2,0.4,0.3,0.9,0.3,1.5c0,0.7-0.2,1.3-0.6,1.8c-0.4,0.5-0.9,0.9-1.6,1.1
			c-0.6,0.3-1.3,0.4-1.9,0.4c-0.8,0-1.7-0.1-2.5-0.4C268.9,215.5,268.2,215,267.7,214.3z"/>
		<path class="st3" d="M278.6,205h5c0.3,0,0.6,0.1,0.8,0.3c0.2,0.2,0.3,0.5,0.3,0.8c0,0.3-0.1,0.6-0.3,0.8c-0.2,0.2-0.5,0.3-0.8,0.3
			h-5c-0.3,0-0.6-0.1-0.8-0.3c-0.2-0.2-0.3-0.5-0.3-0.8c0-0.3,0.1-0.6,0.3-0.8S278.2,205,278.6,205z M280.8,202.4
			c0.4,0,0.7,0.1,0.9,0.4s0.3,0.5,0.3,0.9v9.3c0,0.2,0,0.4,0.1,0.5c0.1,0.1,0.2,0.2,0.3,0.3c0.1,0.1,0.3,0.1,0.4,0.1
			c0.2,0,0.3,0,0.5-0.1c0.1-0.1,0.3-0.1,0.5-0.1c0.2,0,0.4,0.1,0.5,0.3s0.2,0.4,0.2,0.8c0,0.4-0.2,0.7-0.6,1
			c-0.4,0.3-0.9,0.4-1.4,0.4c-0.3,0-0.6,0-1-0.1s-0.7-0.2-1-0.4c-0.3-0.2-0.6-0.5-0.8-0.9c-0.2-0.4-0.3-0.9-0.3-1.6v-9.5
			c0-0.4,0.1-0.7,0.4-0.9C280.1,202.5,280.4,202.4,280.8,202.4z"/>
	</g>
</g>
</svg>
